# xmcd
#
# Track frame offsets:
#	150
#	29060
#	66018
#	104730
#	121626
#	159243
#	192705
#	232059
#	277504
#
# Disc length: 4321 seconds
#
# Revision: 13
# Processed by: cddbd v1.5.2PL0 Copyright (c) Steve Scherf et al.
# Submitted via: audiograbber 1.83.01
#
DISCID=7910df09
DTITLE=Christopher Paolini - Eragon - Die Weisheit des Feuers CD 16
DYEAR=2008
DGENRE=Hörbuch
TTITLE0=Hoffen auf die Zukunft
TTITLE1=Glumra 1
TTITLE2=Glumra 2
TTITLE3=Glumra 3
TTITLE4=Versammlung 1
TTITLE5=Versammlung 2
TTITLE6=Versammlung 3
TTITLE7=Versammlung 4
TTITLE8=Versammlung 5
EXTD=
EXTT0=
EXTT1=
EXTT2=
EXTT3=
EXTT4=
EXTT5=
EXTT6=
EXTT7=
EXTT8=
PLAYORDER=
